<?xml version="1.0" encoding="utf-8"?>
<!-- Generator: Adobe Illustrator 24.1.2, SVG Export Plug-In . SVG Version: 6.00 Build 0)  -->
<svg version="1.1" id="Livello_1" xmlns="http://www.w3.org/2000/svg" xmlns:xlink="http://www.w3.org/1999/xlink" x="0px" y="0px"
	 viewBox="0 0 500 500" style="enable-background:new 0 0 500 500;" xml:space="preserve">
<style type="text/css">
	.st0{fill:#EADDFF;}
	.st1{fill:#F4EFF4;}
	.st2{fill:none;stroke:#EADDFF;stroke-width:20;stroke-miterlimit:10;}
</style>
<g>
	<g>
		<path class="st0" d="M189.4,345.1l0,39.2c0,33.5,27.1,60.6,60.6,60.6c33.5,0,60.6-27.1,60.6-60.6l0,0l0-52.2
			c0-33.5-27.1-60.6-60.6-60.6c-6.9,0-13.7,1.2-20.2,3.5v16.7c0,1.7,0.2,3.4,0.6,5c19.5-10.8,44.1-3.7,54.9,15.8
			c3.3,6,5.1,12.7,5,19.6l0,52.2c0,22.3-18.1,40.4-40.4,40.4s-40.4-18.1-40.4-40.4l0-22.6C202,357.2,195.2,351.6,189.4,345.1
			L189.4,345.1z"/>
		<path class="st1" d="M189.4,291.7c0,33.5,27.1,60.6,60.6,60.6c6.9,0,13.7-1.2,20.2-3.5l0-22.1c-19.3,11.1-44,4.5-55.2-14.8
			c-3.5-6.1-5.4-13.1-5.4-20.2l0-52.2c0-22.3,18.1-40.4,40.4-40.4s40.4,18.1,40.4,40.4l0,0l0,22.6c7.6,4.4,14.4,10,20.2,16.5v-39.2
			c0-33.5-27.1-60.6-60.6-60.6s-60.6,27.1-60.6,60.6L189.4,291.7z"/>
	</g>
	<circle class="st2" cx="250" cy="103.2" r="48"/>
</g>
</svg>
